Coordinates
version=1
nRows=16
nColumns=40
inDegrees=yes

Units are S.I. units (second, meters, Newtons, ...)
If the header above contains a line with 'inDegrees', this indicates whether rotational values are in degrees (yes) or radians (no).

endheader
time	pelvis_tilt	pelvis_list	pelvis_rotation	pelvis_tx	pelvis_ty	pelvis_tz	hip_flexion_r	hip_adduction_r	hip_rotation_r	knee_angle_r	knee_angle_r_beta	ankle_angle_r	subtalar_angle_r	mtp_angle_r	hip_flexion_l	hip_adduction_l	hip_rotation_l	knee_angle_l	knee_angle_l_beta	ankle_angle_l	subtalar_angle_l	mtp_angle_l	lumbar_extension	lumbar_bending	lumbar_rotation	arm_flex_r	arm_add_r	arm_rot_r	elbow_flex_r	pro_sup_r	wrist_flex_r	wrist_dev_r	arm_flex_l	arm_add_l	arm_rot_l	elbow_flex_l	pro_sup_l	wrist_flex_l	wrist_dev_l
      0.32400000	     23.74723353	      0.52436066	      0.91661105	      0.55543776	      0.98278711	     -0.30926872	    -18.92084375	      2.48766126	     -5.55959514	     14.77296717	      0.25783692	     -5.55943712	      0.00000000	      0.00000000	    -14.24181534	     -3.71898223	     -0.94196733	     55.86312514	      0.97499546	    -15.77128732	      0.00000000	      0.00000000	    -35.75747295	      2.07415369	     -3.68575002	      4.93688546	    -17.21015877	     17.69186710	     50.45226889	     73.66201272	      0.00000000	      0.00000000	      0.94624134	    -23.97853398	     18.87413377	     48.05487322	     80.85423934	      0.00000000	      0.00000000
      0.32800000	     23.76420160	      0.50455815	      0.73302798	      0.56023791	      0.98348427	     -0.30855407	    -19.30209150	      2.47997470	     -5.69311242	     14.69203903	      0.25642445	     -5.51428628	      0.00000000	      0.00000000	    -13.60190837	     -3.62313322	     -0.99388291	     55.65571187	      0.97137542	    -15.58515701	      0.00000000	      0.00000000	    -35.84504122	      1.92628960	     -3.45121028	      5.19179984	    -17.14452166	     17.72134756	     50.62339201	     73.67755257	      0.00000000	      0.00000000	      0.94013069	    -24.08692931	     18.83999816	     48.02471900	     80.85642177	      0.00000000	      0.00000000
      0.33200000	     23.65526766	      0.72297240	      0.54152344	      0.56563310	      0.98403849	     -0.30839749	    -19.83911740	      2.21912435	     -5.38794941	     14.12234493	      0.24648142	     -5.65084978	      0.00000000	      0.00000000	    -12.92211628	     -3.15721158	     -0.89730556	     55.42279251	      0.96731021	    -15.00322831	      0.00000000	      0.00000000	    -35.74410243	      1.59894260	     -3.29634812	      5.26601049	    -17.24609502	     17.93234861	     50.90495515	     73.79069129	      0.00000000	      0.00000000	      0.83965589	    -24.10056454	     18.82326304	     48.07701627	     80.82966593	      0.00000000	      0.00000000
      0.33600000	     23.60967515	      0.91778865	      0.86885168	      0.57237717	      0.98443771	     -0.30846618	    -20.62436004	      2.20485507	     -5.98903102	     13.39541030	      0.23379401	     -5.61994271	      0.00000000	      0.00000000	    -12.31423271	     -2.91284487	     -0.43419529	     55.19667174	      0.96336366	    -14.40932228	      0.00000000	      0.00000000	    -35.49615486	      1.51954669	     -3.57141681	      5.14908446	    -17.13552611	     17.89639775	     51.08669986	     73.91910414	      0.00000000	      0.00000000	      0.48480797	    -24.24159957	     18.75624204	     48.13903239	     80.81674561	      0.00000000	      0.00000000
      0.34000000	     23.66291806	      0.84392437	      0.68609371	      0.57666341	      0.98506282	     -0.30771488	    -20.99379575	      2.25782413	     -6.12646063	     13.32433651	      0.23255354	     -5.60587798	      0.00000000	      0.00000000	    -11.65410337	     -2.84832937	     -0.44322220	     54.95088448	      0.95907386	    -14.26342359	      0.00000000	      0.00000000	    -35.69076726	      1.42878658	     -3.29448753	      5.47596311	    -17.10714371	     17.93663463	     51.21406761	     73.93666643	      0.00000000	      0.00000000	      0.55837065	    -24.32949222	     18.71697108	     48.17681554	     80.81044162	      0.00000000	      0.00000000
      0.34400000	     23.88169833	      0.82109480	      0.40451479	      0.58259924	      0.98589124	     -0.30723024	    -22.06107513	      2.26854114	     -5.70493096	     12.37509458	      0.21598615	     -6.13153750	      0.00000000	      0.00000000	    -11.50113023	     -2.75027081	     -0.71992273	     54.43922249	      0.95014367	    -13.51087655	      0.00000000	      0.00000000	    -35.82573990	      1.25909561	     -3.09426593	      5.95914979	    -17.23464993	     18.88687865	     50.93085227	     74.08304100	      0.00000000	      0.00000000	      0.24374264	    -24.36216975	     18.46543077	     48.31170838	     80.73052631	      0.00000000	      0.00000000
      0.34800000	     23.78000043	      0.83042272	      0.29267560	      0.58816694	      0.98610257	     -0.30667737	    -22.49515489	      2.26851234	     -5.97550519	     12.03581509	      0.21006460	     -6.10435826	      0.00000000	      0.00000000	    -10.78332191	     -2.73011796	     -0.92573122	     54.14502798	      0.94500901	    -12.51563581	      0.00000000	      0.00000000	    -35.69614138	      1.11032888	     -2.89649075	      5.96243072	    -17.23068947	     18.86301454	     51.23269986	     74.10344647	      0.00000000	      0.00000000	      0.04785690	    -24.47417174	     18.43942887	     48.56267879	     80.70033384	      0.00000000	      0.00000000
      0.35200000	     23.80130884	      0.78633205	      0.23759972	      0.59264022	      0.98647044	     -0.30623378	    -22.86177082	      2.31740854	     -6.08653984	     11.95821101	      0.20871015	     -6.07172837	      0.00000000	      0.00000000	    -10.09023947	     -2.70654701	     -0.92462186	     53.82114133	      0.93935612	    -12.28487791	      0.00000000	      0.00000000	    -35.84457149	      1.08347050	     -2.69390538	      6.27070266	    -17.22105632	     18.88542737	     51.36705956	     74.11309841	      0.00000000	      0.00000000	      0.11621450	    -24.57239082	     18.40871142	     48.58729752	     80.68438228	      0.00000000	      0.00000000
      0.35600000	     23.73842799	      0.74638429	      0.15787178	      0.59751500	      0.98671660	     -0.30578755	    -23.20561710	      2.35667380	     -6.20649839	     11.78187751	      0.20563255	     -6.04262431	      0.00000000	      0.00000000	     -9.39783690	     -2.66129498	     -0.92225451	     53.44169268	      0.93273350	    -12.00164893	      0.00000000	      0.00000000	    -35.85385808	      1.01190198	     -2.51879891	      6.49873127	    -17.19901103	     18.96279901	     51.53884161	     74.12908050	      0.00000000	      0.00000000	      0.11431546	    -24.64689004	     18.41093250	     48.62591725	     80.66904266	      0.00000000	      0.00000000
      0.36000000	     23.61056689	      0.87730622	      0.23546315	      0.60329268	      0.98672300	     -0.30596078	    -23.85267095	      2.29670862	     -6.10735967	     10.97021341	      0.19146634	     -6.20458413	      0.00000000	      0.00000000	     -8.76350125	     -2.28973289	     -0.46399091	     53.00455928	      0.92510408	    -12.14292430	      0.00000000	      0.00000000	    -35.64942024	      0.90471822	     -2.56574560	      6.43472169	    -17.36285242	     19.24145730	     52.01225401	     74.19816236	      0.00000000	      0.00000000	     -0.07031473	    -24.68385595	     18.35896973	     48.69024350	     80.53499974	      0.00000000	      0.00000000
      0.36400000	     23.55312429	      0.79655477	      0.17379139	      0.60888461	      0.98683949	     -0.30549894	    -24.28711876	      2.40812813	     -6.41751610	     10.68417377	      0.18647401	     -6.19244580	      0.00000000	      0.00000000	     -8.18431816	     -2.31156280	     -0.51021872	     52.47371669	      0.91583913	    -11.75597319	      0.00000000	      0.00000000	    -35.55953725	      0.88005948	     -2.35963902	      6.62080863	    -17.34753141	     19.40463588	     51.96545968	     74.22871986	      0.00000000	      0.00000000	     -0.21366531	    -24.77051753	     18.39927519	     48.80012679	     80.46944224	      0.00000000	      0.00000000
      0.36800000	     23.54942007	      0.74806484	      0.12975638	      0.61331387	      0.98699501	     -0.30508483	    -24.63446973	      2.46301931	     -6.53335822	     10.58506929	      0.18474431	     -6.16669645	      0.00000000	      0.00000000	     -7.50717115	     -2.33011129	     -0.56603151	     52.07794967	      0.90893169	    -11.56596123	      0.00000000	      0.00000000	    -35.67233706	      0.84813099	     -2.22643325	      6.90658456	    -17.33736453	     19.41209873	     52.15493112	     74.24003201	      0.00000000	      0.00000000	     -0.15843038	    -24.87428857	     18.34706552	     48.84532419	     80.44675043	      0.00000000	      0.00000000
      0.37200000	     23.41772444	      0.70533246	      0.06989390	      0.61898908	      0.98686567	     -0.30483305	    -25.05666611	      2.52795818	     -6.59766079	     10.19606434	      0.17795489	     -6.12769795	      0.00000000	      0.00000000	     -6.89760549	     -2.25392293	     -0.48061111	     51.48292716	      0.89854659	    -11.05156786	      0.00000000	      0.00000000	    -35.49306451	      0.79979006	     -2.04111317	      6.91202712	    -17.41551807	     19.57391271	     52.44461788	     74.28480834	      0.00000000	      0.00000000	     -0.34535300	    -24.92046017	     18.33803140	     48.99753774	     80.36448729	      0.00000000	      0.00000000
      0.37600000	     23.56716559	      0.70171751	      0.18791676	      0.62438435	      0.98712360	     -0.30456703	    -26.03540072	      2.67666049	     -6.37648016	      9.21494422	      0.16083112	     -6.65589018	      0.00000000	      0.00000000	     -6.53811425	     -2.19316663	     -0.27749585	     50.94689198	      0.88919101	    -10.47225510	      0.00000000	      0.00000000	    -35.65743201	      0.81269312	     -2.14125863	      7.14871019	    -17.41944821	     19.90885769	     52.62532805	     74.35794635	      0.00000000	      0.00000000	     -0.54679758	    -25.05615498	     18.16090545	     49.14042140	     80.01226307	      0.00000000	      0.00000000
      0.38000000	     23.61444024	      0.58480669	      0.20193860	      0.63007628	      0.98715688	     -0.30404322	    -26.65944795	      2.84006254	     -6.46552952	      8.83783071	      0.15424924	     -6.62538183	      0.00000000	      0.00000000	     -6.13761414	     -2.32453227	     -0.38903331	     50.36078095	      0.87896144	    -10.21207190	      0.00000000	      0.00000000	    -35.68722983	      0.84212269	     -1.96005110	      7.16499817	    -17.36575320	     19.62656211	     52.98213057	     74.06144776	      0.00000000	      0.00000000	     -0.71145531	    -25.13295126	     18.02155264	     49.34689432	     79.81040513	      0.00000000	      0.00000000
      0.38400000	     23.48492593	      0.45948603	      0.11730198	      0.63493481	      0.98691382	     -0.30368134	    -26.91298395	      2.95351207	     -6.48491602	      8.68317201	      0.15154994	     -6.62194263	      0.00000000	      0.00000000	     -5.44763931	     -2.33091267	     -0.27215406	     49.76642576	      0.86858799	    -10.01636631	      0.00000000	      0.00000000	    -35.60712204	      0.85588805	     -1.69376829	      7.40969547	    -17.42408388	     19.87761219	     53.04876128	     74.05402445	      0.00000000	      0.00000000	     -0.70791544	    -25.17912832	     18.08830678	     49.39292263	     79.79603121	      0.00000000	      0.00000000
